PathFileType	4	(X/Y/Z)	Patient4_TMGait_0pt3_02_right_12.trc.trc
DataRate	CameraRate	NumFrames	NumMarkers	Units	OrigDataRate	OrigDataStartFrame	OrigNumFrames
51.094890510949	51.094890510949	5	33	mm	51.094890510949	124	       141
Frame#	Time	Sacral			L.Shoulder			Chest			R.Shoulder			Neck			R.ASIS			L.ASIS			R.Thigh.Superior			R.Thigh.Lateral			R.Thigh.Inferior			R.Patella			L.Thigh.Superior			L.Thigh.Lateral			L.Thigh.Inferior			L.Patella			L.Shank.Superior			L.Shank.Lateral			L.Shank.Inferior			R.Shank.Superior			R.Shank.Lateral			R.Shank.Inferior			R.Heel			R.Midfoot.Superior			R.Midfoot.Lateral			R.Toe			L.Heel			L.Midfoot.Lateral			L.Midfoot.Superior			L.Toe			L.Elbow			L.Wrist			R.Elbow			R.Wrist			
		X1	Y1	Z1	X2	Y2	Z2	X3	Y3	Z3	X4	Y4	Z4	X5	Y5	Z5	X6	Y6	Z6	X7	Y7	Z7	X8	Y8	Z8	X9	Y9	Z9	X10	Y10	Z10	X11	Y11	Z11	X12	Y12	Z12	X13	Y13	Z13	X14	Y14	Z14	X15	Y15	Z15	X16	Y16	Z16	X17	Y17	Z17	X18	Y18	Z18	X19	Y19	Z19	X20	Y20	Z20	X21	Y21	Z21	X22	Y22	Z22	X23	Y23	Z23	X24	Y24	Z24	X25	Y25	Z25	X26	Y26	Z26	X27	Y27	Z27	X28	Y28	Z28	X29	Y29	Z29	X30	Y30	Z30	X31	Y31	Z31	X32	Y32	Z32	X33	Y33	Z33	

124	24.837285714286	711.742766338863	992.064382136787	393.057629247737	939.479861908732	1435.194623355919	299.423026313002	981.951836475332	1352.101680278368	479.048602887511	843.775285376667	1413.464801455256	620.531114241438	877.173832454205	1484.276552498111	450.474231804295	908.169789292393	931.452254702036	565.120906568827	959.372095960090	954.302623060543	294.745852786569	985.352414364252	751.785679659969	546.215902454052	922.675516762910	631.944081936907	607.520257558397	1020.354621984427	590.673853633533	541.495792231920	1041.611970684308	501.413121864016	559.455805063851	962.551896921596	723.056494542595	331.940982266843	863.259733134258	617.758299875032	257.266788225856	913.388365686491	531.749996577999	337.994487099321	897.714183940864	462.691329119207	348.510523846651	858.491874359520	395.650349651784	337.800951932995	758.519797804105	295.819544549199	276.161480531887	774.066468293832	182.895952963572	359.212925836881	1009.894839004668	412.194813038253	569.830969213257	932.349216997354	313.046187124431	633.711772495110	985.524274607396	213.947615478745	586.708690860214	860.784805490528	41.831092916916	561.757272626153	1027.916925344021	102.083156924755	604.792775677982	941.742060068904	36.523284587749	639.198029375483	1147.207739531418	58.057982823151	637.231414428729	620.353934651360	39.429179847992	387.580542466636	701.861528018023	35.156788613255	314.967285427088	784.107342662733	94.960536053136	350.077081285044	913.426947577414	39.676284251029	334.152811730529	1067.855242381015	1133.761136468350	142.043218343227	1308.977092912928	1181.653439696127	210.681455638979	666.437494511292	1104.510403280659	654.488810986033	635.486374818980	845.279639355324	666.686541865327	
125	24.856857142857	711.958628551160	991.474820377851	397.143365565401	940.220957664733	1434.049674145002	304.443783535970	982.325106829207	1351.092564985149	484.254838102410	843.948250047645	1412.768814241285	625.491819855612	877.659806236061	1483.391098787564	455.432433258141	907.921944737670	930.102648417679	569.739290042703	959.816716406749	953.511203798391	299.458604306905	985.004100086310	750.186141308180	549.997127695247	921.298915731916	630.164605414211	609.783773908172	1019.307104444064	589.062680395423	544.217375380843	1039.446861270509	499.581677477677	561.263137976929	961.882218423666	722.016609891146	335.272176142742	861.543767252289	617.684098972202	260.262758672991	911.203302005107	530.919107268281	340.390108185538	895.079622568356	461.712918703054	350.501599612856	855.235854928808	395.156944846102	339.486947307080	754.124345077173	296.512055167892	277.436708338040	769.041441561410	182.863216253822	359.663456602233	1007.784076164835	410.073007798059	571.131717596454	930.088296282152	310.948176026198	634.625352842011	982.141189456106	212.007748680582	586.553819906089	855.940580043322	41.662749436840	560.989518876570	1023.505478038342	100.709145707968	604.285900178076	936.551491202570	36.208334798221	638.756053785351	1142.284466101676	55.529769939856	636.991223902196	614.548820840408	39.881163486626	387.560456431131	696.093764422999	35.342918965691	315.062774528652	778.430790539615	95.056525164085	350.090359340743	907.646906961514	39.507022502669	334.120442586877	1066.936624684402	1131.424316587951	147.393346047720	1307.848572469731	1181.517464359864	215.197466536989	670.682506084480	1100.667794340846	658.318793671657	646.607832084944	840.432216861537	669.643334112716	
126	24.876428571429	712.301370560331	991.306111962284	401.640276797442	941.043684583698	1433.224427570856	309.508914320103	982.969250164620	1350.404826995683	489.455226095500	844.544547090771	1412.397640245838	630.570103799651	878.334149517051	1482.831218582328	460.484508180200	908.091310121509	929.149145093520	574.482160286704	960.232392163850	952.987939026995	304.239176522612	985.080453328537	749.010537200542	553.470049195550	920.633101105058	628.889824381744	612.086813644804	1018.581056898825	587.801545817481	546.571336750446	1037.673980930825	497.975137898062	562.846100474168	961.237599964054	721.159008010924	338.637958277969	859.825513358947	617.780057400934	263.461767156566	909.217819292235	530.248820050737	342.893288794432	892.731543786830	460.842486816119	352.567129113694	852.169855988492	394.835202113206	341.245016505550	749.776468701357	297.482122934208	278.864924641946	764.123776006867	183.010229005050	360.119943270940	1005.781168374339	408.221429688119	572.276809819962	927.769014510694	309.325967607576	635.524399997651	978.252177260557	210.375973818694	586.325948782040	850.069598293559	41.890562351219	560.303708194010	1018.164545710414	99.587028768640	603.724318243615	930.393152443928	36.221119382572	638.362739271075	1136.487197573932	53.122670159759	636.775040590379	608.787589087810	40.596316849885	387.537542910393	690.370496784255	35.665909148351	315.175625292272	772.858016549721	95.219462906110	350.075137883628	901.905120358402	39.304397379210	334.066419548890	1065.382696846056	1128.964026403016	152.902743476654	1306.572331842401	1179.736570277415	219.622338360298	675.438424801670	1097.200815639218	662.971984858980	658.670923604837	836.142855405113	674.270060190641	
127	24.896000000000	712.731027727302	991.565612508456	406.558947463601	941.918104182831	1432.739162540952	314.562378765953	983.871724178357	1350.052089698757	494.587276213436	845.574439242878	1412.370068757378	635.719642065560	879.193518653762	1482.622710129802	465.575753729062	908.635374166344	928.617297054872	579.323835219763	960.559039899960	952.746822005145	309.054915439475	985.423908637198	748.211358076104	556.750460455411	920.429677914896	628.086857128627	614.527706412822	1017.970742754167	586.854029024581	548.696796569791	1036.089762031290	496.622299704288	564.305311347152	960.548569114787	720.534106484437	342.026373238536	858.068901195270	618.086878290190	266.810466240204	907.396993937696	529.779769732401	345.445897115656	890.634063198096	460.122615478549	354.639059534213	849.273230032922	394.724964464217	343.021569357121	745.471415613086	298.761598441861	280.414652885259	759.320109333934	183.378933601368	360.553527301346	1003.779820803893	406.677909620926	573.348875092871	925.397773165601	308.110272476428	636.467253081708	974.051334448772	209.050574589020	586.118080695254	843.643489967250	42.337661228196	559.775489707437	1012.282878968622	98.704832276332	603.180709383394	923.753440094136	36.430579133270	638.066861637861	1130.256454079991	50.945676316136	636.622743700472	603.080610825665	41.653077879903	387.509157745982	684.691916917313	36.168632463474	315.295094724763	767.407125839870	95.460808930223	350.019540045165	896.192508248621	39.072108594049	333.995203955607	1063.216412135359	1126.463591008237	158.520481741749	1305.155637847355	1176.397001071875	223.942383055846	680.540556570089	1094.267775999823	668.433668200085	671.256240548845	832.643437789287	680.590821960434	
128	24.915571428571	713.204374442522	992.232937828836	411.904467158083	942.791573539494	1432.593268393169	319.551767478244	985.009700231169	1350.031044825504	499.590876278358	847.043296252094	1412.684534401242	640.904391629118	880.223148448140	1482.769206418418	470.658601437135	909.499589302585	928.502953340731	584.236413392575	960.742362767869	952.786875972366	313.881289808947	985.861287151253	747.701016328858	559.982258173233	920.382660903833	627.678552509795	617.171529689102	1017.252448609954	586.155483190443	550.744883366486	1034.454306993432	495.517824963673	565.734046266513	959.790231271048	720.186066420452	345.432685718995	856.290382484508	618.626632600830	270.267909866767	905.768896906166	529.541004644539	348.003482357696	888.816085920545	459.579491325734	356.663796660443	846.576425310757	394.847081246620	344.778299445894	741.249046896345	300.380913867338	282.060594299189	754.659882636557	184.007883049595	360.939329991404	1001.629756437903	405.446763167607	574.421127910907	922.904882342981	307.216855574304	637.479226418294	969.653388300736	208.010764426089	585.993236949990	837.016493416954	42.870167414074	559.428912383810	1006.154508983966	98.038720324981	602.705793195575	916.985062712464	36.732556961410	637.881213128628	1123.903064194086	49.048925906410	636.553882977239	597.443719680138	43.144719303625	387.472985895495	679.058909898416	36.903705906122	315.410918801698	762.100296631371	95.793843255424	349.911759675014	890.492876132070	38.814841118773	333.912517758614	1060.448848496291	1123.994362956940	164.199610969947	1303.544999022363	1171.544458169458	228.134829041346	685.869982177430	1091.969795717597	674.706728721295	684.045625123931	830.088323855264	688.586810338724	
